HIERARCHY
ROOT ui
{
	 OFFSET 0 0 0
	 CHANNELS 3 XPosition YPosition Z Position
	 EndSite
	 {
	 OFFSET 0 -1 0
	 }
}
ROOT li
{
	 OFFSET 0 0 0
	 CHANNELS 3 XPosition YPosition Z Position
	 EndSite
	 {
	 OFFSET 0 -1 0
	 }
}
ROOT ul
{
	 OFFSET 0 0 0
	 CHANNELS 3 XPosition YPosition Z Position
	 EndSite
	 {
	 OFFSET 0 -1 0
	 }
}
ROOT ll
{
	 OFFSET 0 0 0
	 CHANNELS 3 XPosition YPosition Z Position
	 EndSite
	 {
	 OFFSET 0 -1 0
	 }
}
ROOT tt
{
	 OFFSET 0 0 0
	 CHANNELS 3 XPosition YPosition Z Position
	 EndSite
	 {
	 OFFSET 0 -1 0
	 }
}
ROOT tb
{
	 OFFSET 0 0 0
	 CHANNELS 3 XPosition YPosition Z Position
	 EndSite
	 {
	 OFFSET 0 -1 0
	 }
}
ROOT td
{
	 OFFSET 0 0 0
	 CHANNELS 3 XPosition YPosition Z Position
	 EndSite
	 {
	 OFFSET 0 -1 0
	 }
}
ROOT v
{
	 OFFSET 0 0 0
	 CHANNELS 3 XPosition YPosition Z Position
	 EndSite
	 {
	 OFFSET 0 -1 0
	 }
}
ROOT bn
{
	 OFFSET 0 0 0
	 CHANNELS 3 XPosition YPosition Z Position
	 EndSite
	 {
	 OFFSET 0 -1 0
	 }
}
MOTION
Frames: 21
Frame Time: 0.002
-0.0020244150161743166	-0.0023353309631347656	0		0.5752905883789062	-2.360030029296875	0		-1.098307861328125	0.06709439849853516	0		-0.6263211059570313	-2.495419677734375	0		2.203638671875	0.043668655395507815	0		3.567919921875	0.23721833801269532	0		4.90609228515625	0.3330576477050781	0		5.95680224609375	0.34585430908203124	0		-0.23913433837890624	5.9007314453125	0		
-0.001485368013381958	-0.0026383090019226076	0		0.5499895629882813	-2.357009521484375	0		-1.164768310546875	0.06748939514160156	0		-0.7054423217773438	-2.476854248046875	0		2.1545732421875	0.07904393768310547	0		3.567593017578125	0.25011424255371095	0		4.89460302734375	0.3321492004394531	0		5.96083544921875	0.363079833984375	0		-0.2389181671142578	5.899416015625	0		
0.0030682520866394045	-1.7140000127255916E-6	0		0.5557235717773438	-2.3503525390625	0		-1.155174072265625	0.07400264739990234	0		-0.6148751220703125	-2.48622265625	0		2.189839599609375	0.056458297729492186	0		3.5860751953125	0.24779949951171876	0		4.88426171875	0.3462353210449219	0		5.95700927734375	0.3805430908203125	0		-0.2718142395019531	5.89245458984375	0		
0.0066150188446044925	0.00363336706161499	0		0.5604263916015625	-2.345694580078125	0		-1.1465987548828125	0.08051030731201173	0		-0.6899580688476562	-2.4627451171875	0		2.1953828125	0.06020590591430664	0		3.5668759765625	0.2759107666015625	0		4.88675390625	0.34718276977539064	0		5.96676123046875	0.4063075866699219	0		-0.23859921264648437	5.89873779296875	0		
0.004055630207061767	-6.749659776687622E-4	0		0.5671856079101563	-2.335067626953125	0		-1.146118896484375	0.08009346008300781	0		-0.641249267578125	-2.457665283203125	0		2.1946865234375	0.04401841735839844	0		3.535145263671875	0.25815655517578123	0		4.8621513671875	0.34143594360351565	0		5.95367626953125	0.43270526123046876	0		-0.25360769653320314	5.888546875	0		
4.900589883327485E-4	-0.003981604099273682	0		0.5398232421875	-2.33407177734375	0		-1.1846436767578126	0.0810949478149414	0		-0.7095015869140625	-2.44729931640625	0		2.232082275390625	0.037407665252685546	0		3.568648193359375	0.2626797790527344	0		4.86259521484375	0.34141302490234376	0		5.96970068359375	0.43237857055664064	0		-0.2545269775390625	5.889189453125	0		
9.38286006450653E-4	-0.004339527130126953	0		0.5513660888671875	-2.3405126953125	0		-1.17108154296875	0.09151198577880859	0		-0.7068627319335937	-2.445728515625	0		2.265405029296875	0.02584292793273926	0		3.559144287109375	0.26867767333984377	0		4.84608642578125	0.3475770874023438	0		5.954330078125	0.432896240234375	0		-0.2875497741699219	5.88317626953125	0		
-0.008535913467407227	0.004406937122344971	0		0.5201215209960938	-2.325488525390625	0		-1.1937249755859376	0.08531913757324219	0		-0.7001892700195312	-2.43920556640625	0		2.118740966796875	0.018240472793579102	0		3.53470654296875	0.2828354797363281	0		4.86547705078125	0.34634637451171874	0		5.9752177734375	0.4099591369628906	0		-0.28852243041992187	5.8838046875	0		
-0.004099530220031738	0.006999903202056885	0		0.5496862182617187	-2.326129150390625	0		-1.161187744140625	0.09752598571777343	0		-0.6955718994140625	-2.43566064453125	0		2.127100341796875	0.013938725471496582	0		3.5390693359375	0.28067550659179685	0		4.85094482421875	0.3544841003417969	0		5.97061474609375	0.4326772766113281	0		-0.2544756622314453	5.8880537109375	0		
0.0021522340774536132	-0.005425607204437256	0		0.5413145141601563	-2.3183564453125	0		-1.16585546875	0.09313864135742188	0		-0.6600784301757813	-2.441446044921875	0		2.137458984375	0.011616316795349121	0		3.54358203125	0.29451388549804686	0		4.84722705078125	0.3475	0		5.96893994140625	0.47607241821289065	0		-0.25449931335449216	5.8876748046875	0		
-0.0033596510887145994	0.006280075073242188	0		0.5398084716796875	-2.320656494140625	0		-1.1655025634765626	0.09270230102539062	0		-0.7064346923828125	-2.4303466796875	0		2.1567841796875	0.008199420928955078	0		3.51493359375	0.29570425415039064	0		4.8416376953125	0.354531982421875	0		5.97339892578125	0.458744140625	0		-0.25552557373046875	5.88831005859375	0		
-0.007054014205932617	0.002969654083251953	0		0.5423179321289062	-2.31899560546875	0		-1.195084228515625	0.10059192657470703	0		-0.66997314453125	-2.434127685546875	0		2.166099609375	0.005891129016876221	0		3.530251220703125	0.2954202880859375	0		4.84195263671875	0.35449346923828123	0		5.9736396484375	0.45881051635742187	0		-0.2886320495605469	5.88229150390625	0		
0.007199337959289551	-0.003525054931640625	0		0.553714599609375	-2.3254248046875	0		-1.1737950439453124	0.0979498291015625	0		-0.6935357055664062	-2.43726220703125	0		2.12252490234375	0.01614192008972168	0		3.542655517578125	0.3051639404296875	0		4.84023779296875	0.3534664611816406	0		5.97750732421875	0.47606118774414063	0		-0.28670892333984377	5.87890576171875	0		
0.010540746688842773	1.035579964518547E-4	0		0.5513161010742188	-2.309702392578125	0		-1.154439453125	0.10334230804443359	0		-0.6280470581054688	-2.433324951171875	0		2.143822265625	0.01570355224609375	0		3.5330849609375	0.3191321105957031	0		4.8466005859375	0.36134164428710935	0		5.9806630859375	0.4967599182128906	0		-0.2887164611816406	5.8815703125	0		
-0.006155393123626709	0.0019489179849624635	0		0.537752197265625	-2.30685986328125	0		-1.1601102294921875	0.10801107025146485	0		-0.7046218872070312	-2.431886474609375	0		2.1251357421875	0.018682392120361328	0		3.5082783203125	0.3122475280761719	0		4.84279052734375	0.3543070068359375	0		5.9801728515625	0.5019435119628907	0		-0.28391241455078126	5.8651708984375	0		
0.008045970916748047	-0.004521200180053711	0		0.538126220703125	-2.30715869140625	0		-1.1498616943359374	0.10652754211425781	0		-0.646265869140625	-2.434847412109375	0		2.147419189453125	0.020229734420776368	0		3.527589599609375	0.3178914794921875	0		4.84303857421875	0.35421218872070315	0		5.97181689453125	0.5055530395507812	0		-0.2849155578613281	5.86584326171875	0		
-0.005644457817077637	0.0013083560466766357	0		0.5384686279296875	-2.307451904296875	0		-1.1396304931640624	0.10506071472167969	0		-0.7099664916992188	-2.439526611328125	0		2.141737548828125	0.027065324783325195	0		3.531884765625	0.323680908203125	0		4.84327001953125	0.35409808349609373	0		5.98053564453125	0.5017657470703125	0		-0.30387054443359374	5.86971240234375	0		
-0.0013862780332565307	0.003961349010467529	0		0.52576806640625	-2.30860400390625	0		-1.1252939453125	0.1155699462890625	0		-0.67367529296875	-2.442228759765625	0		2.13791259765625	0.021877279281616212	0		3.523245849609375	0.3375926513671875	0		4.8434853515625	0.35396405029296873	0		5.980697265625	0.5016067810058594	0		-0.30385064697265624	5.869396484375	0		
-0.001178576946258545	0.003666973114013672	0		0.5191563720703125	-2.2978115234375	0		-1.1119769287109376	0.12610860443115235	0		-0.707343505859375	-2.437192626953125	0		2.1082861328125	0.03795285034179687	0		3.54548388671875	0.34117364501953124	0		4.85368212890625	0.35370703125	0		5.97888134765625	0.5429712524414062	0		-0.26975286865234377	5.8747431640625	0		
-9.906929731369018E-4	0.0033838489055633544	0		0.536456787109375	-2.292258056640625	0		-1.0998848876953125	0.11667769622802734	0		-0.649124267578125	-2.44008740234375	0		2.11948291015625	0.038604145050048826	0		3.559796875	0.35382583618164065	0		4.8499443359375	0.36157379150390623	0		5.98250732421875	0.5253284301757812	0		-0.28281967163085936	5.862587890625	0		
-0.004852959156036377	1.5255099534988402E-4	0		0.5346311645507813	-2.295501220703125	0		-1.1787142333984375	0.1171978530883789	0		-0.725902587890625	-2.43858056640625	0		2.104733642578125	0.046519023895263675	0		3.54596044921875	0.3537539367675781	0		4.86211669921875	0.362255859375	0		5.9868330078125	0.5076187133789063	0		-0.26962277221679687	5.8741767578125	0		
